solid patch0
   facet normal 1 0 0
      outer loop
         vertex 0.0005 4.41077131483023E-06 4.47833127002489E-05
         vertex 0.0005 -4.41077131483023E-06 4.47833127002489E-05
         vertex 0.0005 8.77906449072577E-06 4.41353376181454E-05
      endloop
   endfacet
   facet normal 1 0 0
      outer loop
         vertex 0.0005 8.77906449072577E-06 4.41353376181454E-05
         vertex 0.0005 -4.41077131483023E-06 4.47833127002489E-05
         vertex 0.0005 -8.77906449072577E-06 4.41353376181454E-05
      endloop
   endfacet
   facet normal 1 0 0
      outer loop
         vertex 0.0005 8.77906449072577E-06 4.41353376181454E-05
         vertex 0.0005 -8.77906449072577E-06 4.41353376181454E-05
         vertex 0.0005 1.30628104764508E-05 4.30623151079494E-05
      endloop
   endfacet
   facet normal 1 0 0
      outer loop
         vertex 0.0005 1.30628104764508E-05 4.30623151079494E-05
         vertex 0.0005 -8.77906449072577E-06 4.41353376181454E-05
         vertex 0.0005 -1.30628104764508E-05 4.30623151079494E-05
      endloop
   endfacet
   facet normal 1 0 0
      outer loop
         vertex 0.0005 1.30628104764508E-05 4.30623151079494E-05
         vertex 0.0005 -1.30628104764508E-05 4.30623151079494E-05
         vertex 0.0005 1.7220754456429E-05 4.15745789630079E-05
      endloop
   endfacet
   facet normal 1 0 0
      outer loop
         vertex 0.0005 1.7220754456429E-05 4.15745789630079E-05
         vertex 0.0005 -1.30628104764508E-05 4.30623151079494E-05
         vertex 0.0005 -1.7220754456429E-05 4.15745789630079E-05
      endloop
   endfacet
   facet normal 1 0 0
      outer loop
         vertex 0.0005 1.7220754456429E-05 4.15745789630079E-05
         vertex 0.0005 -1.7220754456429E-05 4.15745789630079E-05
         vertex 0.0005 2.12128531571699E-05 3.9686456895676E-05
      endloop
   endfacet
   facet normal 1 0 0
      outer loop
         vertex 0.0005 2.12128531571699E-05 3.9686456895676E-05
         vertex 0.0005 -1.7220754456429E-05 4.15745789630079E-05
         vertex 0.0005 -2.12128531571699E-05 3.9686456895676E-05
      endloop
   endfacet
   facet normal 1 0 0
      outer loop
         vertex 0.0005 2.12128531571699E-05 3.9686456895676E-05
         vertex 0.0005 -2.12128531571699E-05 3.9686456895676E-05
         vertex 0.0005 2.50006604858821E-05 3.74161325536145E-05
      endloop
   endfacet
   facet normal 1 0 0
      outer loop
         vertex 0.0005 2.50006604858821E-05 3.74161325536145E-05
         vertex 0.0005 -2.12128531571699E-05 3.9686456895676E-05
         vertex 0.0005 -2.50006604858821E-05 3.74161325536145E-05
      endloop
   endfacet
   facet normal 1 0 0
      outer loop
         vertex 0.0005 2.50006604858821E-05 3.74161325536145E-05
         vertex 0.0005 -2.50006604858821E-05 3.74161325536145E-05
         vertex 0.0005 2.8547697787364E-05 3.47854704013232E-05
      endloop
   endfacet
   facet normal 1 0 0
      outer loop
         vertex 0.0005 2.8547697787364E-05 3.47854704013232E-05
         vertex 0.0005 -2.50006604858821E-05 3.74161325536145E-05
         vertex 0.0005 -2.8547697787364E-05 3.47854704013232E-05
      endloop
   endfacet
   facet normal 1 0 0
      outer loop
         vertex 0.0005 2.8547697787364E-05 3.47854704013232E-05
         vertex 0.0005 -2.8547697787364E-05 3.47854704013232E-05
         vertex 0.0005 3.18198051533946E-05 3.18198051533946E-05
      endloop
   endfacet
   facet normal 1 0 0
      outer loop
         vertex 0.0005 3.18198051533946E-05 3.18198051533946E-05
         vertex 0.0005 -2.8547697787364E-05 3.47854704013232E-05
         vertex 0.0005 -3.18198051533946E-05 3.18198051533946E-05
      endloop
   endfacet
   facet normal 1 0 0
      outer loop
         vertex 0.0005 3.18198051533946E-05 3.18198051533946E-05
         vertex 0.0005 -3.18198051533946E-05 3.18198051533946E-05
         vertex 0.0005 3.47854704013232E-05 2.8547697787364E-05
      endloop
   endfacet
   facet normal 1 0 0
      outer loop
         vertex 0.0005 3.47854704013232E-05 2.8547697787364E-05
         vertex 0.0005 -3.18198051533946E-05 3.18198051533946E-05
         vertex 0.0005 -3.47854704013232E-05 2.8547697787364E-05
      endloop
   endfacet
   facet normal 1 0 0
      outer loop
         vertex 0.0005 3.47854704013232E-05 2.8547697787364E-05
         vertex 0.0005 -3.47854704013232E-05 2.8547697787364E-05
         vertex 0.0005 3.74161325536145E-05 2.50006604858821E-05
      endloop
   endfacet
   facet normal 1 0 0
      outer loop
         vertex 0.0005 3.74161325536145E-05 2.50006604858821E-05
         vertex 0.0005 -3.47854704013232E-05 2.8547697787364E-05
         vertex 0.0005 -3.74161325536145E-05 2.50006604858821E-05
      endloop
   endfacet
   facet normal 1 0 0
      outer loop
         vertex 0.0005 3.74161325536145E-05 2.50006604858821E-05
         vertex 0.0005 -3.74161325536145E-05 2.50006604858821E-05
         vertex 0.0005 3.9686456895676E-05 2.12128531571699E-05
      endloop
   endfacet
   facet normal 1 0 0
      outer loop
         vertex 0.0005 3.9686456895676E-05 2.12128531571699E-05
         vertex 0.0005 -3.74161325536145E-05 2.50006604858821E-05
         vertex 0.0005 -3.9686456895676E-05 2.12128531571699E-05
      endloop
   endfacet
   facet normal 1 0 0
      outer loop
         vertex 0.0005 3.9686456895676E-05 2.12128531571699E-05
         vertex 0.0005 -3.9686456895676E-05 2.12128531571699E-05
         vertex 0.0005 4.15745789630079E-05 1.7220754456429E-05
      endloop
   endfacet
   facet normal 1 0 0
      outer loop
         vertex 0.0005 4.15745789630079E-05 1.7220754456429E-05
         vertex 0.0005 -3.9686456895676E-05 2.12128531571699E-05
         vertex 0.0005 -4.15745789630079E-05 1.7220754456429E-05
      endloop
   endfacet
   facet normal 1 0 0
      outer loop
         vertex 0.0005 4.15745789630079E-05 1.7220754456429E-05
         vertex 0.0005 -4.15745789630079E-05 1.7220754456429E-05
         vertex 0.0005 4.30623151079494E-05 1.30628104764508E-05
      endloop
   endfacet
   facet normal 1 0 0
      outer loop
         vertex 0.0005 4.30623151079494E-05 1.30628104764508E-05
         vertex 0.0005 -4.15745789630079E-05 1.7220754456429E-05
         vertex 0.0005 -4.30623151079494E-05 1.30628104764508E-05
      endloop
   endfacet
   facet normal 1 0 0
      outer loop
         vertex 0.0005 4.30623151079494E-05 1.30628104764508E-05
         vertex 0.0005 -4.30623151079494E-05 1.30628104764508E-05
         vertex 0.0005 4.41353376181454E-05 8.77906449072579E-06
      endloop
   endfacet
   facet normal 1 0 0
      outer loop
         vertex 0.0005 4.41353376181454E-05 8.77906449072579E-06
         vertex 0.0005 -4.30623151079494E-05 1.30628104764508E-05
         vertex 0.0005 -4.41353376181454E-05 8.77906449072577E-06
      endloop
   endfacet
   facet normal 1 0 0
      outer loop
         vertex 0.0005 4.41353376181454E-05 8.77906449072579E-06
         vertex 0.0005 -4.41353376181454E-05 8.77906449072577E-06
         vertex 0.0005 4.47833127002489E-05 4.41077131483024E-06
      endloop
   endfacet
   facet normal 1 0 0
      outer loop
         vertex 0.0005 4.47833127002489E-05 4.41077131483024E-06
         vertex 0.0005 -4.41353376181454E-05 8.77906449072577E-06
         vertex 0.0005 -4.47833127002489E-05 4.41077131483023E-06
      endloop
   endfacet
   facet normal 1 0 0
      outer loop
         vertex 0.0005 4.47833127002489E-05 4.41077131483024E-06
         vertex 0.0005 -4.47833127002489E-05 4.41077131483023E-06
         vertex 0.0005 4.5E-05 -5.51091059616309E-21
      endloop
   endfacet
   facet normal 1 0 0
      outer loop
         vertex 0.0005 4.5E-05 -5.51091059616309E-21
         vertex 0.0005 -4.47833127002489E-05 4.41077131483023E-06
         vertex 0.0005 -4.5E-05 0
      endloop
   endfacet
   facet normal 1 0 0
      outer loop
         vertex 0.0005 4.5E-05 -5.51091059616309E-21
         vertex 0.0005 -4.5E-05 0
         vertex 0.0005 4.47833127002489E-05 -4.41077131483024E-06
      endloop
   endfacet
   facet normal 1 0 0
      outer loop
         vertex 0.0005 4.47833127002489E-05 -4.41077131483024E-06
         vertex 0.0005 -4.5E-05 0
         vertex 0.0005 -4.47833127002489E-05 -4.41077131483023E-06
      endloop
   endfacet
   facet normal 1 0 0
      outer loop
         vertex 0.0005 4.47833127002489E-05 -4.41077131483024E-06
         vertex 0.0005 -4.47833127002489E-05 -4.41077131483023E-06
         vertex 0.0005 4.41353376181454E-05 -8.77906449072579E-06
      endloop
   endfacet
   facet normal 1 0 0
      outer loop
         vertex 0.0005 4.41353376181454E-05 -8.77906449072579E-06
         vertex 0.0005 -4.47833127002489E-05 -4.41077131483023E-06
         vertex 0.0005 -4.41353376181454E-05 -8.77906449072577E-06
      endloop
   endfacet
   facet normal 1 0 0
      outer loop
         vertex 0.0005 4.41353376181454E-05 -8.77906449072579E-06
         vertex 0.0005 -4.41353376181454E-05 -8.77906449072577E-06
         vertex 0.0005 4.30623151079494E-05 -1.30628104764508E-05
      endloop
   endfacet
   facet normal 1 0 0
      outer loop
         vertex 0.0005 4.30623151079494E-05 -1.30628104764508E-05
         vertex 0.0005 -4.41353376181454E-05 -8.77906449072577E-06
         vertex 0.0005 -4.30623151079494E-05 -1.30628104764508E-05
      endloop
   endfacet
   facet normal 1 0 0
      outer loop
         vertex 0.0005 4.30623151079494E-05 -1.30628104764508E-05
         vertex 0.0005 -4.30623151079494E-05 -1.30628104764508E-05
         vertex 0.0005 4.15745789630079E-05 -1.7220754456429E-05
      endloop
   endfacet
   facet normal 1 0 0
      outer loop
         vertex 0.0005 4.15745789630079E-05 -1.7220754456429E-05
         vertex 0.0005 -4.30623151079494E-05 -1.30628104764508E-05
         vertex 0.0005 -4.15745789630079E-05 -1.7220754456429E-05
      endloop
   endfacet
   facet normal 1 0 0
      outer loop
         vertex 0.0005 4.15745789630079E-05 -1.7220754456429E-05
         vertex 0.0005 -4.15745789630079E-05 -1.7220754456429E-05
         vertex 0.0005 3.9686456895676E-05 -2.12128531571699E-05
      endloop
   endfacet
   facet normal 1 0 0
      outer loop
         vertex 0.0005 3.9686456895676E-05 -2.12128531571699E-05
         vertex 0.0005 -4.15745789630079E-05 -1.7220754456429E-05
         vertex 0.0005 -3.9686456895676E-05 -2.12128531571699E-05
      endloop
   endfacet
   facet normal 1 0 0
      outer loop
         vertex 0.0005 3.9686456895676E-05 -2.12128531571699E-05
         vertex 0.0005 -3.9686456895676E-05 -2.12128531571699E-05
         vertex 0.0005 3.74161325536145E-05 -2.50006604858821E-05
      endloop
   endfacet
   facet normal 1 0 0
      outer loop
         vertex 0.0005 3.74161325536145E-05 -2.50006604858821E-05
         vertex 0.0005 -3.9686456895676E-05 -2.12128531571699E-05
         vertex 0.0005 -3.74161325536145E-05 -2.50006604858821E-05
      endloop
   endfacet
   facet normal 1 0 0
      outer loop
         vertex 0.0005 3.74161325536145E-05 -2.50006604858821E-05
         vertex 0.0005 -3.74161325536145E-05 -2.50006604858821E-05
         vertex 0.0005 3.47854704013232E-05 -2.8547697787364E-05
      endloop
   endfacet
   facet normal 1 0 0
      outer loop
         vertex 0.0005 3.47854704013232E-05 -2.8547697787364E-05
         vertex 0.0005 -3.74161325536145E-05 -2.50006604858821E-05
         vertex 0.0005 -3.47854704013232E-05 -2.8547697787364E-05
      endloop
   endfacet
   facet normal 1 0 0
      outer loop
         vertex 0.0005 3.47854704013232E-05 -2.8547697787364E-05
         vertex 0.0005 -3.47854704013232E-05 -2.8547697787364E-05
         vertex 0.0005 3.18198051533946E-05 -3.18198051533946E-05
      endloop
   endfacet
   facet normal 1 0 0
      outer loop
         vertex 0.0005 3.18198051533946E-05 -3.18198051533946E-05
         vertex 0.0005 -3.47854704013232E-05 -2.8547697787364E-05
         vertex 0.0005 -3.18198051533946E-05 -3.18198051533946E-05
      endloop
   endfacet
   facet normal 1 0 0
      outer loop
         vertex 0.0005 3.18198051533946E-05 -3.18198051533946E-05
         vertex 0.0005 -3.18198051533946E-05 -3.18198051533946E-05
         vertex 0.0005 2.8547697787364E-05 -3.47854704013232E-05
      endloop
   endfacet
   facet normal 1 0 0
      outer loop
         vertex 0.0005 2.8547697787364E-05 -3.47854704013232E-05
         vertex 0.0005 -3.18198051533946E-05 -3.18198051533946E-05
         vertex 0.0005 -2.8547697787364E-05 -3.47854704013232E-05
      endloop
   endfacet
   facet normal 1 0 0
      outer loop
         vertex 0.0005 2.8547697787364E-05 -3.47854704013232E-05
         vertex 0.0005 -2.8547697787364E-05 -3.47854704013232E-05
         vertex 0.0005 2.50006604858821E-05 -3.74161325536145E-05
      endloop
   endfacet
   facet normal 1 0 0
      outer loop
         vertex 0.0005 2.50006604858821E-05 -3.74161325536145E-05
         vertex 0.0005 -2.8547697787364E-05 -3.47854704013232E-05
         vertex 0.0005 -2.50006604858821E-05 -3.74161325536145E-05
      endloop
   endfacet
   facet normal 1 0 0
      outer loop
         vertex 0.0005 2.50006604858821E-05 -3.74161325536145E-05
         vertex 0.0005 -2.50006604858821E-05 -3.74161325536145E-05
         vertex 0.0005 2.12128531571699E-05 -3.9686456895676E-05
      endloop
   endfacet
   facet normal 1 0 0
      outer loop
         vertex 0.0005 2.12128531571699E-05 -3.9686456895676E-05
         vertex 0.0005 -2.50006604858821E-05 -3.74161325536145E-05
         vertex 0.0005 -2.12128531571699E-05 -3.9686456895676E-05
      endloop
   endfacet
   facet normal 1 0 0
      outer loop
         vertex 0.0005 2.12128531571699E-05 -3.9686456895676E-05
         vertex 0.0005 -2.12128531571699E-05 -3.9686456895676E-05
         vertex 0.0005 1.7220754456429E-05 -4.15745789630079E-05
      endloop
   endfacet
   facet normal 1 0 0
      outer loop
         vertex 0.0005 1.7220754456429E-05 -4.15745789630079E-05
         vertex 0.0005 -2.12128531571699E-05 -3.9686456895676E-05
         vertex 0.0005 -1.7220754456429E-05 -4.15745789630079E-05
      endloop
   endfacet
   facet normal 1 0 0
      outer loop
         vertex 0.0005 1.7220754456429E-05 -4.15745789630079E-05
         vertex 0.0005 -1.7220754456429E-05 -4.15745789630079E-05
         vertex 0.0005 1.30628104764508E-05 -4.30623151079494E-05
      endloop
   endfacet
   facet normal 1 0 0
      outer loop
         vertex 0.0005 1.30628104764508E-05 -4.30623151079494E-05
         vertex 0.0005 -1.7220754456429E-05 -4.15745789630079E-05
         vertex 0.0005 -1.30628104764508E-05 -4.30623151079494E-05
      endloop
   endfacet
   facet normal 1 0 0
      outer loop
         vertex 0.0005 1.30628104764508E-05 -4.30623151079494E-05
         vertex 0.0005 -1.30628104764508E-05 -4.30623151079494E-05
         vertex 0.0005 8.77906449072577E-06 -4.41353376181454E-05
      endloop
   endfacet
   facet normal 1 0 0
      outer loop
         vertex 0.0005 8.77906449072577E-06 -4.41353376181454E-05
         vertex 0.0005 -1.30628104764508E-05 -4.30623151079494E-05
         vertex 0.0005 -8.77906449072577E-06 -4.41353376181454E-05
      endloop
   endfacet
   facet normal 1 0 0
      outer loop
         vertex 0.0005 8.77906449072577E-06 -4.41353376181454E-05
         vertex 0.0005 -8.77906449072577E-06 -4.41353376181454E-05
         vertex 0.0005 4.41077131483023E-06 -4.47833127002489E-05
      endloop
   endfacet
   facet normal 1 0 0
      outer loop
         vertex 0.0005 4.41077131483023E-06 -4.47833127002489E-05
         vertex 0.0005 -8.77906449072577E-06 -4.41353376181454E-05
         vertex 0.0005 -4.41077131483023E-06 -4.47833127002489E-05
      endloop
   endfacet
   facet normal 1 0 0
      outer loop
         vertex 0.0005 4.41077131483023E-06 -4.47833127002489E-05
         vertex 0.0005 -4.41077131483023E-06 -4.47833127002489E-05
         vertex 0.0005 -2.75545529808154E-21 -4.5E-05
      endloop
   endfacet
   facet normal 1 0 0
      outer loop
         vertex 0.0005 4.41077131483023E-06 4.47833127002489E-05
         vertex 0.0005 -2.75545529808154E-21 4.5E-05
         vertex 0.0005 -4.41077131483023E-06 4.47833127002489E-05
      endloop
   endfacet
   facet normal 2.59917947303453E-17 0.998795456205172 -0.0490676743274199
      outer loop
         vertex 0.0005 4.47833127002489E-05 -4.41077131483024E-06
         vertex 0 4.47833127002489E-05 -4.41077131483023E-06
         vertex 0.0005 4.5E-05 -5.51091059616309E-21
      endloop
   endfacet
   facet normal -1.08163026552016E-18 0.998795456205173 -0.0490676743274168
      outer loop
         vertex 0.0005 4.5E-05 -5.51091059616309E-21
         vertex 0 4.47833127002489E-05 -4.41077131483023E-06
         vertex 0 4.5E-05 5.51091059616309E-21
      endloop
   endfacet
   facet normal 1.08163026552023E-18 0.998795456205172 0.0490676743274197
      outer loop
         vertex 0.0005 4.5E-05 -5.51091059616309E-21
         vertex 0 4.5E-05 5.51091059616309E-21
         vertex 0.0005 4.47833127002489E-05 4.41077131483024E-06
      endloop
   endfacet
   facet normal 0 0.998795456205172 0.0490676743274199
      outer loop
         vertex 0.0005 4.47833127002489E-05 4.41077131483024E-06
         vertex 0 4.5E-05 5.51091059616309E-21
         vertex 0 4.47833127002489E-05 4.41077131483024E-06
      endloop
   endfacet
   facet normal 0 0.989176509964781 0.14673047445536
      outer loop
         vertex 0.0005 4.47833127002489E-05 4.41077131483024E-06
         vertex 0 4.47833127002489E-05 4.41077131483024E-06
         vertex 0.0005 4.41353376181454E-05 8.77906449072579E-06
      endloop
   endfacet
   facet normal 0 0.989176509964781 0.14673047445536
      outer loop
         vertex 0.0005 4.41353376181454E-05 8.77906449072579E-06
         vertex 0 4.47833127002489E-05 4.41077131483024E-06
         vertex 0 4.41353376181454E-05 8.77906449072579E-06
      endloop
   endfacet
   facet normal 0 0.970031253194544 0.242980179903265
      outer loop
         vertex 0.0005 4.41353376181454E-05 8.77906449072579E-06
         vertex 0 4.41353376181454E-05 8.77906449072579E-06
         vertex 0.0005 4.30623151079494E-05 1.30628104764508E-05
      endloop
   endfacet
   facet normal 0 0.970031253194544 0.242980179903265
      outer loop
         vertex 0.0005 4.30623151079494E-05 1.30628104764508E-05
         vertex 0 4.41353376181454E-05 8.77906449072579E-06
         vertex 0 4.30623151079494E-05 1.30628104764508E-05
      endloop
   endfacet
   facet normal 0 0.941544065183021 0.33688985339222
      outer loop
         vertex 0.0005 4.30623151079494E-05 1.30628104764508E-05
         vertex 0 4.30623151079494E-05 1.30628104764508E-05
         vertex 0.0005 4.15745789630079E-05 1.7220754456429E-05
      endloop
   endfacet
   facet normal 0 0.941544065183021 0.33688985339222
      outer loop
         vertex 0.0005 4.15745789630079E-05 1.7220754456429E-05
         vertex 0 4.30623151079494E-05 1.30628104764508E-05
         vertex 0 4.15745789630079E-05 1.7220754456429E-05
      endloop
   endfacet
   facet normal 0 0.903989293123443 0.427555093430282
      outer loop
         vertex 0.0005 4.15745789630079E-05 1.7220754456429E-05
         vertex 0 4.15745789630079E-05 1.7220754456429E-05
         vertex 0.0005 3.9686456895676E-05 2.12128531571699E-05
      endloop
   endfacet
   facet normal 0 0.903989293123443 0.427555093430282
      outer loop
         vertex 0.0005 3.9686456895676E-05 2.12128531571699E-05
         vertex 0 4.15745789630079E-05 1.7220754456429E-05
         vertex 0 3.9686456895676E-05 2.12128531571699E-05
      endloop
   endfacet
   facet normal 0 0.857728610000272 0.514102744193221
      outer loop
         vertex 0.0005 3.9686456895676E-05 2.12128531571699E-05
         vertex 0 3.9686456895676E-05 2.12128531571699E-05
         vertex 0.0005 3.74161325536145E-05 2.50006604858821E-05
      endloop
   endfacet
   facet normal 0 0.857728610000272 0.514102744193221
      outer loop
         vertex 0.0005 3.74161325536145E-05 2.50006604858821E-05
         vertex 0 3.9686456895676E-05 2.12128531571699E-05
         vertex 0 3.74161325536145E-05 2.50006604858821E-05
      endloop
   endfacet
   facet normal 0 0.803207531480644 0.595699304492435
      outer loop
         vertex 0.0005 3.74161325536145E-05 2.50006604858821E-05
         vertex 0 3.74161325536145E-05 2.50006604858821E-05
         vertex 0.0005 3.47854704013232E-05 2.8547697787364E-05
      endloop
   endfacet
   facet normal 0 0.803207531480644 0.595699304492435
      outer loop
         vertex 0.0005 3.47854704013232E-05 2.8547697787364E-05
         vertex 0 3.74161325536145E-05 2.50006604858821E-05
         vertex 0 3.47854704013232E-05 2.8547697787364E-05
      endloop
   endfacet
   facet normal 0 0.740951125354959 0.671558954847019
      outer loop
         vertex 0.0005 3.47854704013232E-05 2.8547697787364E-05
         vertex 0 3.47854704013232E-05 2.8547697787364E-05
         vertex 0.0005 3.18198051533946E-05 3.18198051533946E-05
      endloop
   endfacet
   facet normal 0 0.740951125354959 0.671558954847019
      outer loop
         vertex 0.0005 3.18198051533946E-05 3.18198051533946E-05
         vertex 0 3.47854704013232E-05 2.8547697787364E-05
         vertex 0 3.18198051533946E-05 3.18198051533946E-05
      endloop
   endfacet
   facet normal 0 0.67155895484702 0.740951125354958
      outer loop
         vertex 0.0005 3.18198051533946E-05 3.18198051533946E-05
         vertex 0 3.18198051533946E-05 3.18198051533946E-05
         vertex 0.0005 2.8547697787364E-05 3.47854704013232E-05
      endloop
   endfacet
   facet normal 0 0.67155895484702 0.740951125354958
      outer loop
         vertex 0.0005 2.8547697787364E-05 3.47854704013232E-05
         vertex 0 3.18198051533946E-05 3.18198051533946E-05
         vertex 0 2.8547697787364E-05 3.47854704013232E-05
      endloop
   endfacet
   facet normal 0 0.595699304492433 0.803207531480645
      outer loop
         vertex 0.0005 2.8547697787364E-05 3.47854704013232E-05
         vertex 0 2.8547697787364E-05 3.47854704013232E-05
         vertex 0.0005 2.50006604858821E-05 3.74161325536145E-05
      endloop
   endfacet
   facet normal 0 0.595699304492433 0.803207531480645
      outer loop
         vertex 0.0005 2.50006604858821E-05 3.74161325536145E-05
         vertex 0 2.8547697787364E-05 3.47854704013232E-05
         vertex 0 2.50006604858821E-05 3.74161325536145E-05
      endloop
   endfacet
   facet normal 0 0.514102744193222 0.857728610000272
      outer loop
         vertex 0.0005 2.50006604858821E-05 3.74161325536145E-05
         vertex 0 2.50006604858821E-05 3.74161325536145E-05
         vertex 0.0005 2.12128531571699E-05 3.9686456895676E-05
      endloop
   endfacet
   facet normal 0 0.514102744193222 0.857728610000272
      outer loop
         vertex 0.0005 2.12128531571699E-05 3.9686456895676E-05
         vertex 0 2.50006604858821E-05 3.74161325536145E-05
         vertex 0 2.12128531571699E-05 3.9686456895676E-05
      endloop
   endfacet
   facet normal 0 0.427555093430282 0.903989293123443
      outer loop
         vertex 0.0005 2.12128531571699E-05 3.9686456895676E-05
         vertex 0 2.12128531571699E-05 3.9686456895676E-05
         vertex 0.0005 1.7220754456429E-05 4.15745789630079E-05
      endloop
   endfacet
   facet normal 0 0.427555093430282 0.903989293123443
      outer loop
         vertex 0.0005 1.7220754456429E-05 4.15745789630079E-05
         vertex 0 2.12128531571699E-05 3.9686456895676E-05
         vertex 0 1.7220754456429E-05 4.15745789630079E-05
      endloop
   endfacet
   facet normal 0 0.336889853392219 0.941544065183021
      outer loop
         vertex 0.0005 1.7220754456429E-05 4.15745789630079E-05
         vertex 0 1.7220754456429E-05 4.15745789630079E-05
         vertex 0.0005 1.30628104764508E-05 4.30623151079494E-05
      endloop
   endfacet
   facet normal 0 0.336889853392219 0.941544065183021
      outer loop
         vertex 0.0005 1.30628104764508E-05 4.30623151079494E-05
         vertex 0 1.7220754456429E-05 4.15745789630079E-05
         vertex 0 1.30628104764508E-05 4.30623151079494E-05
      endloop
   endfacet
   facet normal 0 0.242980179903264 0.970031253194544
      outer loop
         vertex 0.0005 1.30628104764508E-05 4.30623151079494E-05
         vertex 0 1.30628104764508E-05 4.30623151079494E-05
         vertex 0.0005 8.77906449072577E-06 4.41353376181454E-05
      endloop
   endfacet
   facet normal 0 0.242980179903264 0.970031253194544
      outer loop
         vertex 0.0005 8.77906449072577E-06 4.41353376181454E-05
         vertex 0 1.30628104764508E-05 4.30623151079494E-05
         vertex 0 8.77906449072577E-06 4.41353376181454E-05
      endloop
   endfacet
   facet normal 0 0.146730474455363 0.989176509964781
      outer loop
         vertex 0.0005 8.77906449072577E-06 4.41353376181454E-05
         vertex 0 8.77906449072577E-06 4.41353376181454E-05
         vertex 0.0005 4.41077131483023E-06 4.47833127002489E-05
      endloop
   endfacet
   facet normal 0 0.146730474455363 0.989176509964781
      outer loop
         vertex 0.0005 4.41077131483023E-06 4.47833127002489E-05
         vertex 0 8.77906449072577E-06 4.41353376181454E-05
         vertex 0 4.41077131483023E-06 4.47833127002489E-05
      endloop
   endfacet
   facet normal 0 0.0490676743274168 0.998795456205173
      outer loop
         vertex 0.0005 4.41077131483023E-06 4.47833127002489E-05
         vertex 0 4.41077131483023E-06 4.47833127002489E-05
         vertex 0.0005 -2.75545529808154E-21 4.5E-05
      endloop
   endfacet
   facet normal 0 0.0490676743274168 0.998795456205173
      outer loop
         vertex 0.0005 -2.75545529808154E-21 4.5E-05
         vertex 0 4.41077131483023E-06 4.47833127002489E-05
         vertex 0 -2.75545529808154E-21 4.5E-05
      endloop
   endfacet
   facet normal 0 -0.0490676743274199 0.998795456205172
      outer loop
         vertex 0.0005 -2.75545529808154E-21 4.5E-05
         vertex 0 -2.75545529808154E-21 4.5E-05
         vertex 0.0005 -4.41077131483023E-06 4.47833127002489E-05
      endloop
   endfacet
   facet normal 0 -0.0490676743274199 0.998795456205172
      outer loop
         vertex 0.0005 -4.41077131483023E-06 4.47833127002489E-05
         vertex 0 -2.75545529808154E-21 4.5E-05
         vertex 0 -4.41077131483023E-06 4.47833127002489E-05
      endloop
   endfacet
   facet normal 0 -0.14673047445536 0.989176509964781
      outer loop
         vertex 0.0005 -4.41077131483023E-06 4.47833127002489E-05
         vertex 0 -4.41077131483023E-06 4.47833127002489E-05
         vertex 0.0005 -8.77906449072577E-06 4.41353376181454E-05
      endloop
   endfacet
   facet normal 0 -0.14673047445536 0.989176509964781
      outer loop
         vertex 0.0005 -8.77906449072577E-06 4.41353376181454E-05
         vertex 0 -4.41077131483023E-06 4.47833127002489E-05
         vertex 0 -8.77906449072577E-06 4.41353376181454E-05
      endloop
   endfacet
   facet normal 0 -0.242980179903264 0.970031253194544
      outer loop
         vertex 0.0005 -8.77906449072577E-06 4.41353376181454E-05
         vertex 0 -8.77906449072577E-06 4.41353376181454E-05
         vertex 0.0005 -1.30628104764508E-05 4.30623151079494E-05
      endloop
   endfacet
   facet normal 0 -0.242980179903264 0.970031253194544
      outer loop
         vertex 0.0005 -1.30628104764508E-05 4.30623151079494E-05
         vertex 0 -8.77906449072577E-06 4.41353376181454E-05
         vertex 0 -1.30628104764508E-05 4.30623151079494E-05
      endloop
   endfacet
   facet normal 0 -0.336889853392219 0.941544065183021
      outer loop
         vertex 0.0005 -1.30628104764508E-05 4.30623151079494E-05
         vertex 0 -1.30628104764508E-05 4.30623151079494E-05
         vertex 0.0005 -1.7220754456429E-05 4.15745789630079E-05
      endloop
   endfacet
   facet normal 0 -0.336889853392219 0.941544065183021
      outer loop
         vertex 0.0005 -1.7220754456429E-05 4.15745789630079E-05
         vertex 0 -1.30628104764508E-05 4.30623151079494E-05
         vertex 0 -1.7220754456429E-05 4.15745789630079E-05
      endloop
   endfacet
   facet normal 0 -0.427555093430282 0.903989293123443
      outer loop
         vertex 0.0005 -1.7220754456429E-05 4.15745789630079E-05
         vertex 0 -1.7220754456429E-05 4.15745789630079E-05
         vertex 0.0005 -2.12128531571699E-05 3.9686456895676E-05
      endloop
   endfacet
   facet normal 0 -0.427555093430282 0.903989293123443
      outer loop
         vertex 0.0005 -2.12128531571699E-05 3.9686456895676E-05
         vertex 0 -1.7220754456429E-05 4.15745789630079E-05
         vertex 0 -2.12128531571699E-05 3.9686456895676E-05
      endloop
   endfacet
   facet normal 0 -0.514102744193224 0.857728610000271
      outer loop
         vertex 0.0005 -2.12128531571699E-05 3.9686456895676E-05
         vertex 0 -2.12128531571699E-05 3.9686456895676E-05
         vertex 0.0005 -2.50006604858821E-05 3.74161325536145E-05
      endloop
   endfacet
   facet normal 0 -0.514102744193224 0.857728610000271
      outer loop
         vertex 0.0005 -2.50006604858821E-05 3.74161325536145E-05
         vertex 0 -2.12128531571699E-05 3.9686456895676E-05
         vertex 0 -2.50006604858821E-05 3.74161325536145E-05
      endloop
   endfacet
   facet normal 0 -0.595699304492433 0.803207531480645
      outer loop
         vertex 0.0005 -2.50006604858821E-05 3.74161325536145E-05
         vertex 0 -2.50006604858821E-05 3.74161325536145E-05
         vertex 0.0005 -2.8547697787364E-05 3.47854704013232E-05
      endloop
   endfacet
   facet normal 0 -0.595699304492433 0.803207531480645
      outer loop
         vertex 0.0005 -2.8547697787364E-05 3.47854704013232E-05
         vertex 0 -2.50006604858821E-05 3.74161325536145E-05
         vertex 0 -2.8547697787364E-05 3.47854704013232E-05
      endloop
   endfacet
   facet normal 0 -0.671558954847019 0.740951125354959
      outer loop
         vertex 0.0005 -2.8547697787364E-05 3.47854704013232E-05
         vertex 0 -2.8547697787364E-05 3.47854704013232E-05
         vertex 0.0005 -3.18198051533946E-05 3.18198051533946E-05
      endloop
   endfacet
   facet normal 0 -0.671558954847019 0.740951125354959
      outer loop
         vertex 0.0005 -3.18198051533946E-05 3.18198051533946E-05
         vertex 0 -2.8547697787364E-05 3.47854704013232E-05
         vertex 0 -3.18198051533946E-05 3.18198051533946E-05
      endloop
   endfacet
   facet normal 0 -0.740951125354959 0.671558954847019
      outer loop
         vertex 0.0005 -3.18198051533946E-05 3.18198051533946E-05
         vertex 0 -3.18198051533946E-05 3.18198051533946E-05
         vertex 0.0005 -3.47854704013232E-05 2.8547697787364E-05
      endloop
   endfacet
   facet normal 0 -0.740951125354959 0.671558954847019
      outer loop
         vertex 0.0005 -3.47854704013232E-05 2.8547697787364E-05
         vertex 0 -3.18198051533946E-05 3.18198051533946E-05
         vertex 0 -3.47854704013232E-05 2.8547697787364E-05
      endloop
   endfacet
   facet normal 0 -0.803207531480645 0.595699304492433
      outer loop
         vertex 0.0005 -3.47854704013232E-05 2.8547697787364E-05
         vertex 0 -3.47854704013232E-05 2.8547697787364E-05
         vertex 0.0005 -3.74161325536145E-05 2.50006604858821E-05
      endloop
   endfacet
   facet normal 0 -0.803207531480645 0.595699304492433
      outer loop
         vertex 0.0005 -3.74161325536145E-05 2.50006604858821E-05
         vertex 0 -3.47854704013232E-05 2.8547697787364E-05
         vertex 0 -3.74161325536145E-05 2.50006604858821E-05
      endloop
   endfacet
   facet normal 0 -0.857728610000272 0.514102744193222
      outer loop
         vertex 0.0005 -3.74161325536145E-05 2.50006604858821E-05
         vertex 0 -3.74161325536145E-05 2.50006604858821E-05
         vertex 0.0005 -3.9686456895676E-05 2.12128531571699E-05
      endloop
   endfacet
   facet normal 0 -0.857728610000272 0.514102744193222
      outer loop
         vertex 0.0005 -3.9686456895676E-05 2.12128531571699E-05
         vertex 0 -3.74161325536145E-05 2.50006604858821E-05
         vertex 0 -3.9686456895676E-05 2.12128531571699E-05
      endloop
   endfacet
   facet normal 0 -0.903989293123443 0.427555093430283
      outer loop
         vertex 0.0005 -3.9686456895676E-05 2.12128531571699E-05
         vertex 0 -3.9686456895676E-05 2.12128531571699E-05
         vertex 0.0005 -4.15745789630079E-05 1.7220754456429E-05
      endloop
   endfacet
   facet normal 0 -0.903989293123443 0.427555093430283
      outer loop
         vertex 0.0005 -4.15745789630079E-05 1.7220754456429E-05
         vertex 0 -3.9686456895676E-05 2.12128531571699E-05
         vertex 0 -4.15745789630079E-05 1.7220754456429E-05
      endloop
   endfacet
   facet normal 0 -0.941544065183021 0.33688985339222
      outer loop
         vertex 0.0005 -4.15745789630079E-05 1.7220754456429E-05
         vertex 0 -4.15745789630079E-05 1.7220754456429E-05
         vertex 0.0005 -4.30623151079494E-05 1.30628104764508E-05
      endloop
   endfacet
   facet normal 0 -0.941544065183021 0.33688985339222
      outer loop
         vertex 0.0005 -4.30623151079494E-05 1.30628104764508E-05
         vertex 0 -4.15745789630079E-05 1.7220754456429E-05
         vertex 0 -4.30623151079494E-05 1.30628104764508E-05
      endloop
   endfacet
   facet normal 0 -0.970031253194544 0.242980179903264
      outer loop
         vertex 0.0005 -4.30623151079494E-05 1.30628104764508E-05
         vertex 0 -4.30623151079494E-05 1.30628104764508E-05
         vertex 0.0005 -4.41353376181454E-05 8.77906449072577E-06
      endloop
   endfacet
   facet normal 0 -0.970031253194544 0.242980179903264
      outer loop
         vertex 0.0005 -4.41353376181454E-05 8.77906449072577E-06
         vertex 0 -4.30623151079494E-05 1.30628104764508E-05
         vertex 0 -4.41353376181454E-05 8.77906449072577E-06
      endloop
   endfacet
   facet normal 0 -0.989176509964781 0.146730474455363
      outer loop
         vertex 0.0005 -4.41353376181454E-05 8.77906449072577E-06
         vertex 0 -4.41353376181454E-05 8.77906449072577E-06
         vertex 0.0005 -4.47833127002489E-05 4.41077131483023E-06
      endloop
   endfacet
   facet normal 0 -0.989176509964781 0.146730474455363
      outer loop
         vertex 0.0005 -4.47833127002489E-05 4.41077131483023E-06
         vertex 0 -4.41353376181454E-05 8.77906449072577E-06
         vertex 0 -4.47833127002489E-05 4.41077131483023E-06
      endloop
   endfacet
   facet normal 0 -0.998795456205173 0.0490676743274169
      outer loop
         vertex 0.0005 -4.47833127002489E-05 4.41077131483023E-06
         vertex 0 -4.47833127002489E-05 4.41077131483023E-06
         vertex 0.0005 -4.5E-05 0
      endloop
   endfacet
   facet normal 0 -0.998795456205173 0.0490676743274169
      outer loop
         vertex 0.0005 -4.5E-05 0
         vertex 0 -4.47833127002489E-05 4.41077131483023E-06
         vertex 0 -4.5E-05 0
      endloop
   endfacet
   facet normal 0 -0.998795456205173 -0.0490676743274169
      outer loop
         vertex 0.0005 -4.5E-05 0
         vertex 0 -4.5E-05 0
         vertex 0.0005 -4.47833127002489E-05 -4.41077131483023E-06
      endloop
   endfacet
   facet normal -4.15619368004661E-19 -0.998795456205173 -0.0490676743274169
      outer loop
         vertex 0.0005 -4.47833127002489E-05 -4.41077131483023E-06
         vertex 0 -4.5E-05 0
         vertex 0 -4.47833127002489E-05 -4.41077131483022E-06
      endloop
   endfacet
   facet normal -1.24285546229948E-18 -0.989176509964781 -0.146730474455363
      outer loop
         vertex 0.0005 -4.47833127002489E-05 -4.41077131483023E-06
         vertex 0 -4.47833127002489E-05 -4.41077131483022E-06
         vertex 0.0005 -4.41353376181454E-05 -8.77906449072577E-06
      endloop
   endfacet
   facet normal -7.44013529440552E-18 -0.989176509964781 -0.146730474455364
      outer loop
         vertex 0.0005 -4.41353376181454E-05 -8.77906449072577E-06
         vertex 0 -4.47833127002489E-05 -4.41077131483022E-06
         vertex 0 -4.41353376181454E-05 -8.77906449072579E-06
      endloop
   endfacet
   facet normal -3.26738844157809E-18 -0.970031253194544 -0.242980179903264
      outer loop
         vertex 0.0005 -4.41353376181454E-05 -8.77906449072577E-06
         vertex 0 -4.41353376181454E-05 -8.77906449072579E-06
         vertex 0.0005 -4.30623151079494E-05 -1.30628104764508E-05
      endloop
   endfacet
   facet normal 8.25809576126095E-18 -0.970031253194544 -0.242980179903263
      outer loop
         vertex 0.0005 -4.30623151079494E-05 -1.30628104764508E-05
         vertex 0 -4.41353376181454E-05 -8.77906449072579E-06
         vertex 0 -4.30623151079494E-05 -1.30628104764508E-05
      endloop
   endfacet
   facet normal 1.69168062515353E-17 -0.941544065183021 -0.33688985339222
      outer loop
         vertex 0.0005 -4.30623151079494E-05 -1.30628104764508E-05
         vertex 0 -4.30623151079494E-05 -1.30628104764508E-05
         vertex 0.0005 -4.15745789630079E-05 -1.7220754456429E-05
      endloop
   endfacet
   facet normal 5.50253403478014E-18 -0.941544065183021 -0.336889853392221
      outer loop
         vertex 0.0005 -4.15745789630079E-05 -1.7220754456429E-05
         vertex 0 -4.30623151079494E-05 -1.30628104764508E-05
         vertex 0 -4.15745789630079E-05 -1.72207544564291E-05
      endloop
   endfacet
   facet normal 1.09264686138669E-17 -0.903989293123443 -0.427555093430283
      outer loop
         vertex 0.0005 -4.15745789630079E-05 -1.7220754456429E-05
         vertex 0 -4.15745789630079E-05 -1.72207544564291E-05
         vertex 0.0005 -3.9686456895676E-05 -2.12128531571699E-05
      endloop
   endfacet
   facet normal -1.29137748588428E-17 -0.903989293123442 -0.427555093430285
      outer loop
         vertex 0.0005 -3.9686456895676E-05 -2.12128531571699E-05
         vertex 0 -4.15745789630079E-05 -1.72207544564291E-05
         vertex 0 -3.9686456895676E-05 -2.12128531571699E-05
      endloop
   endfacet
   facet normal -9.31399775575538E-18 -0.857728610000272 -0.514102744193222
      outer loop
         vertex 0.0005 -3.9686456895676E-05 -2.12128531571699E-05
         vertex 0 -3.9686456895676E-05 -2.12128531571699E-05
         vertex 0.0005 -3.74161325536145E-05 -2.50006604858821E-05
      endloop
   endfacet
   facet normal 0 -0.857728610000272 -0.514102744193222
      outer loop
         vertex 0.0005 -3.74161325536145E-05 -2.50006604858821E-05
         vertex 0 -3.9686456895676E-05 -2.12128531571699E-05
         vertex 0 -3.74161325536145E-05 -2.50006604858821E-05
      endloop
   endfacet
   facet normal 0 -0.803207531480645 -0.595699304492433
      outer loop
         vertex 0.0005 -3.74161325536145E-05 -2.50006604858821E-05
         vertex 0 -3.74161325536145E-05 -2.50006604858821E-05
         vertex 0.0005 -3.47854704013232E-05 -2.8547697787364E-05
      endloop
   endfacet
   facet normal 9.66113726322341E-18 -0.803207531480646 -0.595699304492432
      outer loop
         vertex 0.0005 -3.47854704013232E-05 -2.8547697787364E-05
         vertex 0 -3.74161325536145E-05 -2.50006604858821E-05
         vertex 0 -3.47854704013232E-05 -2.8547697787364E-05
      endloop
   endfacet
   facet normal 6.43153903668752E-18 -0.740951125354959 -0.671558954847019
      outer loop
         vertex 0.0005 -3.47854704013232E-05 -2.8547697787364E-05
         vertex 0 -3.47854704013232E-05 -2.8547697787364E-05
         vertex 0.0005 -3.18198051533946E-05 -3.18198051533946E-05
      endloop
   endfacet
   facet normal 8.160881697238E-18 -0.740951125354959 -0.671558954847019
      outer loop
         vertex 0.0005 -3.18198051533946E-05 -3.18198051533946E-05
         vertex 0 -3.47854704013232E-05 -2.8547697787364E-05
         vertex 0 -3.18198051533946E-05 -3.18198051533946E-05
      endloop
   endfacet
   facet normal 1.09821995229202E-17 -0.671558954847019 -0.740951125354959
      outer loop
         vertex 0.0005 -3.18198051533946E-05 -3.18198051533946E-05
         vertex 0 -3.18198051533946E-05 -3.18198051533946E-05
         vertex 0.0005 -2.8547697787364E-05 -3.47854704013232E-05
      endloop
   endfacet
   facet normal -1.08306636330157E-17 -0.671558954847017 -0.74095112535496
      outer loop
         vertex 0.0005 -2.8547697787364E-05 -3.47854704013232E-05
         vertex 0 -3.18198051533946E-05 -3.18198051533946E-05
         vertex 0 -2.8547697787364E-05 -3.47854704013232E-05
      endloop
   endfacet
   facet normal -3.67306385738119E-18 -0.595699304492433 -0.803207531480645
      outer loop
         vertex 0.0005 -2.8547697787364E-05 -3.47854704013232E-05
         vertex 0 -2.8547697787364E-05 -3.47854704013232E-05
         vertex 0.0005 -2.50006604858821E-05 -3.74161325536145E-05
      endloop
   endfacet
   facet normal -2.44870923825413E-18 -0.595699304492433 -0.803207531480645
      outer loop
         vertex 0.0005 -2.50006604858821E-05 -3.74161325536145E-05
         vertex 0 -2.8547697787364E-05 -3.47854704013232E-05
         vertex 0 -2.50006604858821E-05 -3.74161325536145E-05
      endloop
   endfacet
   facet normal 2.34660635406718E-18 -0.514102744193224 -0.857728610000271
      outer loop
         vertex 0.0005 -2.50006604858821E-05 -3.74161325536145E-05
         vertex 0 -2.50006604858821E-05 -3.74161325536145E-05
         vertex 0.0005 -2.12128531571699E-05 -3.9686456895676E-05
      endloop
   endfacet
   facet normal -1.04510871025322E-17 -0.514102744193222 -0.857728610000272
      outer loop
         vertex 0.0005 -2.12128531571699E-05 -3.9686456895676E-05
         vertex 0 -2.50006604858821E-05 -3.74161325536145E-05
         vertex 0 -2.12128531571699E-05 -3.9686456895676E-05
      endloop
   endfacet
   facet normal -8.69167802164415E-18 -0.427555093430282 -0.903989293123443
      outer loop
         vertex 0.0005 -2.12128531571699E-05 -3.9686456895676E-05
         vertex 0 -2.12128531571699E-05 -3.9686456895676E-05
         vertex 0.0005 -1.7220754456429E-05 -4.15745789630079E-05
      endloop
   endfacet
   facet normal -9.3541134366362E-18 -0.427555093430282 -0.903989293123443
      outer loop
         vertex 0.0005 -1.7220754456429E-05 -4.15745789630079E-05
         vertex 0 -2.12128531571699E-05 -3.9686456895676E-05
         vertex 0 -1.7220754456429E-05 -4.15745789630079E-05
      endloop
   endfacet
   facet normal -1.04774470686773E-17 -0.336889853392219 -0.941544065183021
      outer loop
         vertex 0.0005 -1.7220754456429E-05 -4.15745789630079E-05
         vertex 0 -1.7220754456429E-05 -4.15745789630079E-05
         vertex 0.0005 -1.30628104764508E-05 -4.30623151079494E-05
      endloop
   endfacet
   facet normal 6.6439612564557E-18 -0.336889853392221 -0.94154406518302
      outer loop
         vertex 0.0005 -1.30628104764508E-05 -4.30623151079494E-05
         vertex 0 -1.7220754456429E-05 -4.15745789630079E-05
         vertex 0 -1.30628104764508E-05 -4.30623151079494E-05
      endloop
   endfacet
   facet normal 8.48855916578753E-19 -0.242980179903264 -0.970031253194544
      outer loop
         vertex 0.0005 -1.30628104764508E-05 -4.30623151079494E-05
         vertex 0 -1.30628104764508E-05 -4.30623151079494E-05
         vertex 0.0005 -8.77906449072577E-06 -4.41353376181454E-05
      endloop
   endfacet
   facet normal 0 -0.242980179903264 -0.970031253194544
      outer loop
         vertex 0.0005 -8.77906449072577E-06 -4.41353376181454E-05
         vertex 0 -1.30628104764508E-05 -4.30623151079494E-05
         vertex 0 -8.77906449072577E-06 -4.41353376181454E-05
      endloop
   endfacet
   facet normal 0 -0.14673047445536 -0.989176509964781
      outer loop
         vertex 0.0005 -8.77906449072577E-06 -4.41353376181454E-05
         vertex 0 -8.77906449072577E-06 -4.41353376181454E-05
         vertex 0.0005 -4.41077131483023E-06 -4.47833127002489E-05
      endloop
   endfacet
   facet normal 1.761455260587E-17 -0.146730474455362 -0.989176509964781
      outer loop
         vertex 0.0005 -4.41077131483023E-06 -4.47833127002489E-05
         vertex 0 -8.77906449072577E-06 -4.41353376181454E-05
         vertex 0 -4.4107713148302E-06 -4.47833127002489E-05
      endloop
   endfacet
   facet normal 2.39968217639228E-17 -0.0490676743274199 -0.998795456205172
      outer loop
         vertex 0.0005 -4.41077131483023E-06 -4.47833127002489E-05
         vertex 0 -4.4107713148302E-06 -4.47833127002489E-05
         vertex 0.0005 -2.75545529808154E-21 -4.5E-05
      endloop
   endfacet
   facet normal -1.08163026552017E-18 -0.049067674327417 -0.998795456205173
      outer loop
         vertex 0.0005 -2.75545529808154E-21 -4.5E-05
         vertex 0 -4.4107713148302E-06 -4.47833127002489E-05
         vertex 0 8.26636589424463E-21 -4.5E-05
      endloop
   endfacet
   facet normal 1.08163026552016E-18 0.0490676743274168 -0.998795456205173
      outer loop
         vertex 0.0005 -2.75545529808154E-21 -4.5E-05
         vertex 0 8.26636589424463E-21 -4.5E-05
         vertex 0.0005 4.41077131483023E-06 -4.47833127002489E-05
      endloop
   endfacet
   facet normal -8.31238736009324E-19 0.049067674327417 -0.998795456205173
      outer loop
         vertex 0.0005 4.41077131483023E-06 -4.47833127002489E-05
         vertex 0 8.26636589424463E-21 -4.5E-05
         vertex 0 4.41077131483022E-06 -4.47833127002489E-05
      endloop
   endfacet
   facet normal -2.48571092459896E-18 0.146730474455363 -0.989176509964781
      outer loop
         vertex 0.0005 4.41077131483023E-06 -4.47833127002489E-05
         vertex 0 4.41077131483022E-06 -4.47833127002489E-05
         vertex 0.0005 8.77906449072577E-06 -4.41353376181454E-05
      endloop
   endfacet
   facet normal -7.44013529440552E-18 0.146730474455364 -0.989176509964781
      outer loop
         vertex 0.0005 8.77906449072577E-06 -4.41353376181454E-05
         vertex 0 4.41077131483022E-06 -4.47833127002489E-05
         vertex 0 8.77906449072579E-06 -4.41353376181454E-05
      endloop
   endfacet
   facet normal -3.26738844157809E-18 0.242980179903264 -0.970031253194544
      outer loop
         vertex 0.0005 8.77906449072577E-06 -4.41353376181454E-05
         vertex 0 8.77906449072579E-06 -4.41353376181454E-05
         vertex 0.0005 1.30628104764508E-05 -4.30623151079494E-05
      endloop
   endfacet
   facet normal 1.0727842376155E-17 0.242980179903263 -0.970031253194544
      outer loop
         vertex 0.0005 1.30628104764508E-05 -4.30623151079494E-05
         vertex 0 8.77906449072579E-06 -4.41353376181454E-05
         vertex 0 1.30628104764508E-05 -4.30623151079494E-05
      endloop
   endfacet
   facet normal 2.03410879165618E-17 0.336889853392219 -0.941544065183021
      outer loop
         vertex 0.0005 1.30628104764508E-05 -4.30623151079494E-05
         vertex 0 1.30628104764508E-05 -4.30623151079494E-05
         vertex 0.0005 1.7220754456429E-05 -4.15745789630079E-05
      endloop
   endfacet
   facet normal 3.2196795914291E-18 0.336889853392221 -0.94154406518302
      outer loop
         vertex 0.0005 1.7220754456429E-05 -4.15745789630079E-05
         vertex 0 1.30628104764508E-05 -4.30623151079494E-05
         vertex 0 1.72207544564291E-05 -4.15745789630079E-05
      endloop
   endfacet
   facet normal 8.02924260665212E-18 0.427555093430282 -0.903989293123443
      outer loop
         vertex 0.0005 1.7220754456429E-05 -4.15745789630079E-05
         vertex 0 1.72207544564291E-05 -4.15745789630079E-05
         vertex 0.0005 2.12128531571699E-05 -3.9686456895676E-05
      endloop
   endfacet
   facet normal 5.79445201442944E-18 0.427555093430283 -0.903989293123443
      outer loop
         vertex 0.0005 2.12128531571699E-05 -3.9686456895676E-05
         vertex 0 1.72207544564291E-05 -4.15745789630079E-05
         vertex 0 2.12128531571699E-05 -3.9686456895676E-05
      endloop
   endfacet
   facet normal 6.96739140168813E-18 0.514102744193222 -0.857728610000272
      outer loop
         vertex 0.0005 2.12128531571699E-05 -3.9686456895676E-05
         vertex 0 2.12128531571699E-05 -3.9686456895676E-05
         vertex 0.0005 2.50006604858821E-05 -3.74161325536145E-05
      endloop
   endfacet
   facet normal -1.27976934565994E-17 0.514102744193224 -0.857728610000271
      outer loop
         vertex 0.0005 2.50006604858821E-05 -3.74161325536145E-05
         vertex 0 2.12128531571699E-05 -3.9686456895676E-05
         vertex 0 2.50006604858821E-05 -3.74161325536145E-05
      endloop
   endfacet
   facet normal -9.66113726322337E-18 0.595699304492433 -0.803207531480645
      outer loop
         vertex 0.0005 2.50006604858821E-05 -3.74161325536145E-05
         vertex 0 2.50006604858821E-05 -3.74161325536145E-05
         vertex 0.0005 2.8547697787364E-05 -3.47854704013232E-05
      endloop
   endfacet
   facet normal -1.21098465014775E-17 0.595699304492433 -0.803207531480645
      outer loop
         vertex 0.0005 2.8547697787364E-05 -3.47854704013232E-05
         vertex 0 2.50006604858821E-05 -3.74161325536145E-05
         vertex 0 2.8547697787364E-05 -3.47854704013232E-05
      endloop
   endfacet
   facet normal -1.36519814586981E-17 0.67155895484702 -0.740951125354958
      outer loop
         vertex 0.0005 2.8547697787364E-05 -3.47854704013232E-05
         vertex 0 2.8547697787364E-05 -3.47854704013232E-05
         vertex 0.0005 3.18198051533946E-05 -3.18198051533946E-05
      endloop
   endfacet
   facet normal 1.82026419449308E-17 0.671558954847017 -0.74095112535496
      outer loop
         vertex 0.0005 3.18198051533946E-05 -3.18198051533946E-05
         vertex 0 2.8547697787364E-05 -3.47854704013232E-05
         vertex 0 3.18198051533946E-05 -3.18198051533946E-05
      endloop
   endfacet
   facet normal 2.00835204953856E-17 0.740951125354959 -0.671558954847019
      outer loop
         vertex 0.0005 3.18198051533946E-05 -3.18198051533946E-05
         vertex 0 3.18198051533946E-05 -3.18198051533946E-05
         vertex 0.0005 3.47854704013232E-05 -2.8547697787364E-05
      endloop
   endfacet
   facet normal 6.43153903668757E-18 0.74095112535496 -0.671558954847018
      outer loop
         vertex 0.0005 3.47854704013232E-05 -2.8547697787364E-05
         vertex 0 3.18198051533946E-05 -3.18198051533946E-05
         vertex 0 3.47854704013232E-05 -2.8547697787364E-05
      endloop
   endfacet
   facet normal 9.66113726322329E-18 0.803207531480644 -0.595699304492435
      outer loop
         vertex 0.0005 3.47854704013232E-05 -2.8547697787364E-05
         vertex 0 3.47854704013232E-05 -2.8547697787364E-05
         vertex 0.0005 3.74161325536145E-05 -2.50006604858821E-05
      endloop
   endfacet
   facet normal -1.21098465014775E-17 0.803207531480645 -0.595699304492433
      outer loop
         vertex 0.0005 3.74161325536145E-05 -2.50006604858821E-05
         vertex 0 3.47854704013232E-05 -2.8547697787364E-05
         vertex 0 3.74161325536145E-05 -2.50006604858821E-05
      endloop
   endfacet
   facet normal -1.04510871025322E-17 0.857728610000272 -0.514102744193221
      outer loop
         vertex 0.0005 3.74161325536145E-05 -2.50006604858821E-05
         vertex 0 3.74161325536145E-05 -2.50006604858821E-05
         vertex 0.0005 3.9686456895676E-05 -2.12128531571699E-05
      endloop
   endfacet
   facet normal -1.04510871025322E-17 0.857728610000272 -0.514102744193221
      outer loop
         vertex 0.0005 3.9686456895676E-05 -2.12128531571699E-05
         vertex 0 3.74161325536145E-05 -2.50006604858821E-05
         vertex 0 3.9686456895676E-05 -2.12128531571699E-05
      endloop
   endfacet
   facet normal -8.69167802164415E-18 0.903989293123443 -0.427555093430282
      outer loop
         vertex 0.0005 3.9686456895676E-05 -2.12128531571699E-05
         vertex 0 3.9686456895676E-05 -2.12128531571699E-05
         vertex 0.0005 4.15745789630079E-05 -1.7220754456429E-05
      endloop
   endfacet
   facet normal -8.69167802164415E-18 0.903989293123443 -0.427555093430282
      outer loop
         vertex 0.0005 4.15745789630079E-05 -1.7220754456429E-05
         vertex 0 3.9686456895676E-05 -2.12128531571699E-05
         vertex 0 4.15745789630079E-05 -1.7220754456429E-05
      endloop
   endfacet
   facet normal -6.84856333005314E-18 0.941544065183021 -0.33688985339222
      outer loop
         vertex 0.0005 4.15745789630079E-05 -1.7220754456429E-05
         vertex 0 4.15745789630079E-05 -1.7220754456429E-05
         vertex 0.0005 4.30623151079494E-05 -1.30628104764508E-05
      endloop
   endfacet
   facet normal -1.02728449950797E-17 0.941544065183021 -0.336889853392219
      outer loop
         vertex 0.0005 4.30623151079494E-05 -1.30628104764508E-05
         vertex 0 4.15745789630079E-05 -1.7220754456429E-05
         vertex 0 4.30623151079494E-05 -1.30628104764508E-05
      endloop
   endfacet
   facet normal -7.40923984468233E-18 0.970031253194544 -0.242980179903265
      outer loop
         vertex 0.0005 4.30623151079494E-05 -1.30628104764508E-05
         vertex 0 4.30623151079494E-05 -1.30628104764508E-05
         vertex 0.0005 4.41353376181454E-05 -8.77906449072579E-06
      endloop
   endfacet
   facet normal -4.93949322978823E-18 0.970031253194544 -0.242980179903265
      outer loop
         vertex 0.0005 4.41353376181454E-05 -8.77906449072579E-06
         vertex 0 4.30623151079494E-05 -1.30628104764508E-05
         vertex 0 4.41353376181454E-05 -8.77906449072578E-06
      endloop
   endfacet
   facet normal -2.98285310951869E-18 0.989176509964781 -0.14673047445536
      outer loop
         vertex 0.0005 4.41353376181454E-05 -8.77906449072579E-06
         vertex 0 4.41353376181454E-05 -8.77906449072578E-06
         vertex 0.0005 4.47833127002489E-05 -4.41077131483024E-06
      endloop
   endfacet
   facet normal 2.35802588249075E-17 0.989176509964781 -0.146730474455363
      outer loop
         vertex 0.0005 4.47833127002489E-05 -4.41077131483024E-06
         vertex 0 4.41353376181454E-05 -8.77906449072578E-06
         vertex 0 4.47833127002489E-05 -4.41077131483023E-06
      endloop
   endfacet
   facet normal -1 0 0
      outer loop
         vertex 0 -4.41077131483023E-06 4.47833127002489E-05
         vertex 0 4.41077131483023E-06 4.47833127002489E-05
         vertex 0 -8.77906449072577E-06 4.41353376181454E-05
      endloop
   endfacet
   facet normal -1 0 0
      outer loop
         vertex 0 -8.77906449072577E-06 4.41353376181454E-05
         vertex 0 4.41077131483023E-06 4.47833127002489E-05
         vertex 0 8.77906449072577E-06 4.41353376181454E-05
      endloop
   endfacet
   facet normal -1 0 0
      outer loop
         vertex 0 -8.77906449072577E-06 4.41353376181454E-05
         vertex 0 8.77906449072577E-06 4.41353376181454E-05
         vertex 0 -1.30628104764508E-05 4.30623151079494E-05
      endloop
   endfacet
   facet normal -1 0 0
      outer loop
         vertex 0 -1.30628104764508E-05 4.30623151079494E-05
         vertex 0 8.77906449072577E-06 4.41353376181454E-05
         vertex 0 1.30628104764508E-05 4.30623151079494E-05
      endloop
   endfacet
   facet normal -1 0 0
      outer loop
         vertex 0 -1.30628104764508E-05 4.30623151079494E-05
         vertex 0 1.30628104764508E-05 4.30623151079494E-05
         vertex 0 -1.7220754456429E-05 4.15745789630079E-05
      endloop
   endfacet
   facet normal -1 0 0
      outer loop
         vertex 0 -1.7220754456429E-05 4.15745789630079E-05
         vertex 0 1.30628104764508E-05 4.30623151079494E-05
         vertex 0 1.7220754456429E-05 4.15745789630079E-05
      endloop
   endfacet
   facet normal -1 0 0
      outer loop
         vertex 0 -1.7220754456429E-05 4.15745789630079E-05
         vertex 0 1.7220754456429E-05 4.15745789630079E-05
         vertex 0 -2.12128531571699E-05 3.9686456895676E-05
      endloop
   endfacet
   facet normal -1 0 0
      outer loop
         vertex 0 -2.12128531571699E-05 3.9686456895676E-05
         vertex 0 1.7220754456429E-05 4.15745789630079E-05
         vertex 0 2.12128531571699E-05 3.9686456895676E-05
      endloop
   endfacet
   facet normal -1 0 0
      outer loop
         vertex 0 -2.12128531571699E-05 3.9686456895676E-05
         vertex 0 2.12128531571699E-05 3.9686456895676E-05
         vertex 0 -2.50006604858821E-05 3.74161325536145E-05
      endloop
   endfacet
   facet normal -1 0 0
      outer loop
         vertex 0 -2.50006604858821E-05 3.74161325536145E-05
         vertex 0 2.12128531571699E-05 3.9686456895676E-05
         vertex 0 2.50006604858821E-05 3.74161325536145E-05
      endloop
   endfacet
   facet normal -1 0 0
      outer loop
         vertex 0 -2.50006604858821E-05 3.74161325536145E-05
         vertex 0 2.50006604858821E-05 3.74161325536145E-05
         vertex 0 -2.8547697787364E-05 3.47854704013232E-05
      endloop
   endfacet
   facet normal -1 0 0
      outer loop
         vertex 0 -2.8547697787364E-05 3.47854704013232E-05
         vertex 0 2.50006604858821E-05 3.74161325536145E-05
         vertex 0 2.8547697787364E-05 3.47854704013232E-05
      endloop
   endfacet
   facet normal -1 0 0
      outer loop
         vertex 0 -2.8547697787364E-05 3.47854704013232E-05
         vertex 0 2.8547697787364E-05 3.47854704013232E-05
         vertex 0 -3.18198051533946E-05 3.18198051533946E-05
      endloop
   endfacet
   facet normal -1 0 0
      outer loop
         vertex 0 -3.18198051533946E-05 3.18198051533946E-05
         vertex 0 2.8547697787364E-05 3.47854704013232E-05
         vertex 0 3.18198051533946E-05 3.18198051533946E-05
      endloop
   endfacet
   facet normal -1 0 0
      outer loop
         vertex 0 -3.18198051533946E-05 3.18198051533946E-05
         vertex 0 3.18198051533946E-05 3.18198051533946E-05
         vertex 0 -3.47854704013232E-05 2.8547697787364E-05
      endloop
   endfacet
   facet normal -1 0 0
      outer loop
         vertex 0 -3.47854704013232E-05 2.8547697787364E-05
         vertex 0 3.18198051533946E-05 3.18198051533946E-05
         vertex 0 3.47854704013232E-05 2.8547697787364E-05
      endloop
   endfacet
   facet normal -1 0 0
      outer loop
         vertex 0 -3.47854704013232E-05 2.8547697787364E-05
         vertex 0 3.47854704013232E-05 2.8547697787364E-05
         vertex 0 -3.74161325536145E-05 2.50006604858821E-05
      endloop
   endfacet
   facet normal -1 0 0
      outer loop
         vertex 0 -3.74161325536145E-05 2.50006604858821E-05
         vertex 0 3.47854704013232E-05 2.8547697787364E-05
         vertex 0 3.74161325536145E-05 2.50006604858821E-05
      endloop
   endfacet
   facet normal -1 0 0
      outer loop
         vertex 0 -3.74161325536145E-05 2.50006604858821E-05
         vertex 0 3.74161325536145E-05 2.50006604858821E-05
         vertex 0 -3.9686456895676E-05 2.12128531571699E-05
      endloop
   endfacet
   facet normal -1 0 0
      outer loop
         vertex 0 -3.9686456895676E-05 2.12128531571699E-05
         vertex 0 3.74161325536145E-05 2.50006604858821E-05
         vertex 0 3.9686456895676E-05 2.12128531571699E-05
      endloop
   endfacet
   facet normal -1 0 0
      outer loop
         vertex 0 -3.9686456895676E-05 2.12128531571699E-05
         vertex 0 3.9686456895676E-05 2.12128531571699E-05
         vertex 0 -4.15745789630079E-05 1.7220754456429E-05
      endloop
   endfacet
   facet normal -1 0 0
      outer loop
         vertex 0 -4.15745789630079E-05 1.7220754456429E-05
         vertex 0 3.9686456895676E-05 2.12128531571699E-05
         vertex 0 4.15745789630079E-05 1.7220754456429E-05
      endloop
   endfacet
   facet normal -1 0 0
      outer loop
         vertex 0 -4.15745789630079E-05 1.7220754456429E-05
         vertex 0 4.15745789630079E-05 1.7220754456429E-05
         vertex 0 -4.30623151079494E-05 1.30628104764508E-05
      endloop
   endfacet
   facet normal -1 0 0
      outer loop
         vertex 0 -4.30623151079494E-05 1.30628104764508E-05
         vertex 0 4.15745789630079E-05 1.7220754456429E-05
         vertex 0 4.30623151079494E-05 1.30628104764508E-05
      endloop
   endfacet
   facet normal -1 0 0
      outer loop
         vertex 0 -4.30623151079494E-05 1.30628104764508E-05
         vertex 0 4.30623151079494E-05 1.30628104764508E-05
         vertex 0 -4.41353376181454E-05 8.77906449072577E-06
      endloop
   endfacet
   facet normal -1 0 0
      outer loop
         vertex 0 -4.41353376181454E-05 8.77906449072577E-06
         vertex 0 4.30623151079494E-05 1.30628104764508E-05
         vertex 0 4.41353376181454E-05 8.77906449072579E-06
      endloop
   endfacet
   facet normal -1 0 0
      outer loop
         vertex 0 -4.41353376181454E-05 8.77906449072577E-06
         vertex 0 4.41353376181454E-05 8.77906449072579E-06
         vertex 0 -4.47833127002489E-05 4.41077131483023E-06
      endloop
   endfacet
   facet normal -1 0 0
      outer loop
         vertex 0 -4.47833127002489E-05 4.41077131483023E-06
         vertex 0 4.41353376181454E-05 8.77906449072579E-06
         vertex 0 4.47833127002489E-05 4.41077131483024E-06
      endloop
   endfacet
   facet normal -1 0 0
      outer loop
         vertex 0 -4.47833127002489E-05 4.41077131483023E-06
         vertex 0 4.47833127002489E-05 4.41077131483024E-06
         vertex 0 -4.5E-05 0
      endloop
   endfacet
   facet normal -1 0 0
      outer loop
         vertex 0 -4.5E-05 0
         vertex 0 4.47833127002489E-05 4.41077131483024E-06
         vertex 0 4.5E-05 5.51091059616309E-21
      endloop
   endfacet
   facet normal -1 0 0
      outer loop
         vertex 0 -4.5E-05 0
         vertex 0 4.5E-05 5.51091059616309E-21
         vertex 0 -4.47833127002489E-05 -4.41077131483022E-06
      endloop
   endfacet
   facet normal -1 0 0
      outer loop
         vertex 0 -4.47833127002489E-05 -4.41077131483022E-06
         vertex 0 4.5E-05 5.51091059616309E-21
         vertex 0 4.47833127002489E-05 -4.41077131483023E-06
      endloop
   endfacet
   facet normal -1 0 0
      outer loop
         vertex 0 -4.47833127002489E-05 -4.41077131483022E-06
         vertex 0 4.47833127002489E-05 -4.41077131483023E-06
         vertex 0 -4.41353376181454E-05 -8.77906449072579E-06
      endloop
   endfacet
   facet normal -1 0 0
      outer loop
         vertex 0 -4.41353376181454E-05 -8.77906449072579E-06
         vertex 0 4.47833127002489E-05 -4.41077131483023E-06
         vertex 0 4.41353376181454E-05 -8.77906449072578E-06
      endloop
   endfacet
   facet normal -1 0 0
      outer loop
         vertex 0 -4.41353376181454E-05 -8.77906449072579E-06
         vertex 0 4.41353376181454E-05 -8.77906449072578E-06
         vertex 0 -4.30623151079494E-05 -1.30628104764508E-05
      endloop
   endfacet
   facet normal -1 0 0
      outer loop
         vertex 0 -4.30623151079494E-05 -1.30628104764508E-05
         vertex 0 4.41353376181454E-05 -8.77906449072578E-06
         vertex 0 4.30623151079494E-05 -1.30628104764508E-05
      endloop
   endfacet
   facet normal -1 0 0
      outer loop
         vertex 0 -4.30623151079494E-05 -1.30628104764508E-05
         vertex 0 4.30623151079494E-05 -1.30628104764508E-05
         vertex 0 -4.15745789630079E-05 -1.72207544564291E-05
      endloop
   endfacet
   facet normal -1 0 0
      outer loop
         vertex 0 -4.15745789630079E-05 -1.72207544564291E-05
         vertex 0 4.30623151079494E-05 -1.30628104764508E-05
         vertex 0 4.15745789630079E-05 -1.7220754456429E-05
      endloop
   endfacet
   facet normal -1 0 0
      outer loop
         vertex 0 -4.15745789630079E-05 -1.72207544564291E-05
         vertex 0 4.15745789630079E-05 -1.7220754456429E-05
         vertex 0 -3.9686456895676E-05 -2.12128531571699E-05
      endloop
   endfacet
   facet normal -1 0 0
      outer loop
         vertex 0 -3.9686456895676E-05 -2.12128531571699E-05
         vertex 0 4.15745789630079E-05 -1.7220754456429E-05
         vertex 0 3.9686456895676E-05 -2.12128531571699E-05
      endloop
   endfacet
   facet normal -1 0 0
      outer loop
         vertex 0 -3.9686456895676E-05 -2.12128531571699E-05
         vertex 0 3.9686456895676E-05 -2.12128531571699E-05
         vertex 0 -3.74161325536145E-05 -2.50006604858821E-05
      endloop
   endfacet
   facet normal -1 0 0
      outer loop
         vertex 0 -3.74161325536145E-05 -2.50006604858821E-05
         vertex 0 3.9686456895676E-05 -2.12128531571699E-05
         vertex 0 3.74161325536145E-05 -2.50006604858821E-05
      endloop
   endfacet
   facet normal -1 0 0
      outer loop
         vertex 0 -3.74161325536145E-05 -2.50006604858821E-05
         vertex 0 3.74161325536145E-05 -2.50006604858821E-05
         vertex 0 -3.47854704013232E-05 -2.8547697787364E-05
      endloop
   endfacet
   facet normal -1 0 0
      outer loop
         vertex 0 -3.47854704013232E-05 -2.8547697787364E-05
         vertex 0 3.74161325536145E-05 -2.50006604858821E-05
         vertex 0 3.47854704013232E-05 -2.8547697787364E-05
      endloop
   endfacet
   facet normal -1 0 0
      outer loop
         vertex 0 -3.47854704013232E-05 -2.8547697787364E-05
         vertex 0 3.47854704013232E-05 -2.8547697787364E-05
         vertex 0 -3.18198051533946E-05 -3.18198051533946E-05
      endloop
   endfacet
   facet normal -1 0 0
      outer loop
         vertex 0 -3.18198051533946E-05 -3.18198051533946E-05
         vertex 0 3.47854704013232E-05 -2.8547697787364E-05
         vertex 0 3.18198051533946E-05 -3.18198051533946E-05
      endloop
   endfacet
   facet normal -1 0 0
      outer loop
         vertex 0 -3.18198051533946E-05 -3.18198051533946E-05
         vertex 0 3.18198051533946E-05 -3.18198051533946E-05
         vertex 0 -2.8547697787364E-05 -3.47854704013232E-05
      endloop
   endfacet
   facet normal -1 0 0
      outer loop
         vertex 0 -2.8547697787364E-05 -3.47854704013232E-05
         vertex 0 3.18198051533946E-05 -3.18198051533946E-05
         vertex 0 2.8547697787364E-05 -3.47854704013232E-05
      endloop
   endfacet
   facet normal -1 0 0
      outer loop
         vertex 0 -2.8547697787364E-05 -3.47854704013232E-05
         vertex 0 2.8547697787364E-05 -3.47854704013232E-05
         vertex 0 -2.50006604858821E-05 -3.74161325536145E-05
      endloop
   endfacet
   facet normal -1 0 0
      outer loop
         vertex 0 -2.50006604858821E-05 -3.74161325536145E-05
         vertex 0 2.8547697787364E-05 -3.47854704013232E-05
         vertex 0 2.50006604858821E-05 -3.74161325536145E-05
      endloop
   endfacet
   facet normal -1 0 0
      outer loop
         vertex 0 -2.50006604858821E-05 -3.74161325536145E-05
         vertex 0 2.50006604858821E-05 -3.74161325536145E-05
         vertex 0 -2.12128531571699E-05 -3.9686456895676E-05
      endloop
   endfacet
   facet normal -1 0 0
      outer loop
         vertex 0 -2.12128531571699E-05 -3.9686456895676E-05
         vertex 0 2.50006604858821E-05 -3.74161325536145E-05
         vertex 0 2.12128531571699E-05 -3.9686456895676E-05
      endloop
   endfacet
   facet normal -1 0 0
      outer loop
         vertex 0 -2.12128531571699E-05 -3.9686456895676E-05
         vertex 0 2.12128531571699E-05 -3.9686456895676E-05
         vertex 0 -1.7220754456429E-05 -4.15745789630079E-05
      endloop
   endfacet
   facet normal -1 0 0
      outer loop
         vertex 0 -1.7220754456429E-05 -4.15745789630079E-05
         vertex 0 2.12128531571699E-05 -3.9686456895676E-05
         vertex 0 1.72207544564291E-05 -4.15745789630079E-05
      endloop
   endfacet
   facet normal -1 0 0
      outer loop
         vertex 0 -1.7220754456429E-05 -4.15745789630079E-05
         vertex 0 1.72207544564291E-05 -4.15745789630079E-05
         vertex 0 -1.30628104764508E-05 -4.30623151079494E-05
      endloop
   endfacet
   facet normal -1 0 0
      outer loop
         vertex 0 -1.30628104764508E-05 -4.30623151079494E-05
         vertex 0 1.72207544564291E-05 -4.15745789630079E-05
         vertex 0 1.30628104764508E-05 -4.30623151079494E-05
      endloop
   endfacet
   facet normal -1 0 0
      outer loop
         vertex 0 -1.30628104764508E-05 -4.30623151079494E-05
         vertex 0 1.30628104764508E-05 -4.30623151079494E-05
         vertex 0 -8.77906449072577E-06 -4.41353376181454E-05
      endloop
   endfacet
   facet normal -1 0 0
      outer loop
         vertex 0 -8.77906449072577E-06 -4.41353376181454E-05
         vertex 0 1.30628104764508E-05 -4.30623151079494E-05
         vertex 0 8.77906449072579E-06 -4.41353376181454E-05
      endloop
   endfacet
   facet normal -1 0 0
      outer loop
         vertex 0 -8.77906449072577E-06 -4.41353376181454E-05
         vertex 0 8.77906449072579E-06 -4.41353376181454E-05
         vertex 0 -4.4107713148302E-06 -4.47833127002489E-05
      endloop
   endfacet
   facet normal -1 0 0
      outer loop
         vertex 0 -4.4107713148302E-06 -4.47833127002489E-05
         vertex 0 8.77906449072579E-06 -4.41353376181454E-05
         vertex 0 4.41077131483022E-06 -4.47833127002489E-05
      endloop
   endfacet
   facet normal -1 0 0
      outer loop
         vertex 0 -4.4107713148302E-06 -4.47833127002489E-05
         vertex 0 4.41077131483022E-06 -4.47833127002489E-05
         vertex 0 8.26636589424463E-21 -4.5E-05
      endloop
   endfacet
   facet normal -1 0 0
      outer loop
         vertex 0 -4.41077131483023E-06 4.47833127002489E-05
         vertex 0 -2.75545529808154E-21 4.5E-05
         vertex 0 4.41077131483023E-06 4.47833127002489E-05
      endloop
   endfacet
endsolid
